<svg width="552" height="38" viewBox="0 0 552 38" fill="none" xmlns="http://www.w3.org/2000/svg">
<path d="M24.2126 9.556L14.9786 31.254C14.0412 33.61 12.8759 35.2693 11.4826 36.232C10.1146 37.1947 8.45524 37.676 6.50457 37.676C5.44057 37.676 4.38924 37.5113 3.35057 37.182C2.3119 36.8527 1.46324 36.3967 0.80457 35.814L2.97057 31.596C3.42657 32.0013 3.9459 32.318 4.52857 32.546C5.13657 32.774 5.7319 32.888 6.31457 32.888C7.12524 32.888 7.7839 32.6853 8.29057 32.28C8.79724 31.9 9.25324 31.254 9.65857 30.342L9.73457 30.152L0.88057 9.556H6.99857L12.7366 23.426L18.5126 9.556H24.2126ZM35.8029 30.304C33.6495 30.304 31.7115 29.8607 29.9889 28.974C28.2915 28.062 26.9615 26.808 25.9989 25.212C25.0362 23.616 24.5549 21.8047 24.5549 19.778C24.5549 17.7513 25.0362 15.94 25.9989 14.344C26.9615 12.748 28.2915 11.5067 29.9889 10.62C31.7115 9.708 33.6495 9.252 35.8029 9.252C37.9562 9.252 39.8815 9.708 41.5789 10.62C43.2762 11.5067 44.6062 12.748 45.5689 14.344C46.5315 15.94 47.0129 17.7513 47.0129 19.778C47.0129 21.8047 46.5315 23.616 45.5689 25.212C44.6062 26.808 43.2762 28.062 41.5789 28.974C39.8815 29.8607 37.9562 30.304 35.8029 30.304ZM35.8029 25.44C37.3229 25.44 38.5642 24.9333 39.5269 23.92C40.5149 22.8813 41.0089 21.5007 41.0089 19.778C41.0089 18.0553 40.5149 16.6873 39.5269 15.674C38.5642 14.6353 37.3229 14.116 35.8029 14.116C34.2829 14.116 33.0289 14.6353 32.0409 15.674C31.0529 16.6873 30.5589 18.0553 30.5589 19.778C30.5589 21.5007 31.0529 22.8813 32.0409 23.92C33.0289 24.9333 34.2829 25.44 35.8029 25.44ZM71.5713 9.556V30H65.9473V27.568C65.1619 28.4547 64.2246 29.1387 63.1353 29.62C62.0459 30.076 60.8679 30.304 59.6013 30.304C56.9159 30.304 54.7879 29.5313 53.2173 27.986C51.6466 26.4407 50.8613 24.148 50.8613 21.108V9.556H56.7893V20.234C56.7893 23.5273 58.1699 25.174 60.9313 25.174C62.3499 25.174 63.4899 24.718 64.3513 23.806C65.2126 22.8687 65.6433 21.488 65.6433 19.664V9.556H71.5713ZM87.8249 1.804H93.7529V30H87.8249V1.804ZM119.281 19.854C119.281 19.93 119.243 20.462 119.167 21.45H103.701C103.979 22.7167 104.638 23.7173 105.677 24.452C106.715 25.1867 108.007 25.554 109.553 25.554C110.617 25.554 111.554 25.402 112.365 25.098C113.201 24.7687 113.973 24.262 114.683 23.578L117.837 26.998C115.911 29.202 113.099 30.304 109.401 30.304C107.095 30.304 105.056 29.8607 103.283 28.974C101.509 28.062 100.141 26.808 99.1786 25.212C98.2159 23.616 97.7346 21.8047 97.7346 19.778C97.7346 17.7767 98.2032 15.978 99.1406 14.382C100.103 12.7607 101.408 11.5067 103.055 10.62C104.727 9.708 106.589 9.252 108.641 9.252C110.642 9.252 112.453 9.68267 114.075 10.544C115.696 11.4053 116.963 12.6467 117.875 14.268C118.812 15.864 119.281 17.726 119.281 19.854ZM108.679 13.736C107.336 13.736 106.209 14.116 105.297 14.876C104.385 15.636 103.827 16.6747 103.625 17.992H113.695C113.492 16.7 112.935 15.674 112.023 14.914C111.111 14.1287 109.996 13.736 108.679 13.736ZM144.317 9.556V26.58C144.317 30.3293 143.342 33.116 141.391 34.94C139.441 36.764 136.591 37.676 132.841 37.676C130.865 37.676 128.991 37.4353 127.217 36.954C125.444 36.4727 123.975 35.776 122.809 34.864L125.165 30.608C126.027 31.3173 127.116 31.8747 128.433 32.28C129.751 32.7107 131.068 32.926 132.385 32.926C134.437 32.926 135.945 32.4573 136.907 31.52C137.895 30.608 138.389 29.2147 138.389 27.34V26.466C136.844 28.1633 134.691 29.012 131.929 29.012C130.055 29.012 128.332 28.6067 126.761 27.796C125.216 26.96 123.987 25.7947 123.075 24.3C122.163 22.8053 121.707 21.0827 121.707 19.132C121.707 17.1813 122.163 15.4587 123.075 13.964C123.987 12.4693 125.216 11.3167 126.761 10.506C128.332 9.67 130.055 9.252 131.929 9.252C134.893 9.252 137.148 10.2273 138.693 12.178V9.556H144.317ZM133.107 24.148C134.678 24.148 135.957 23.692 136.945 22.78C137.959 21.8427 138.465 20.6267 138.465 19.132C138.465 17.6373 137.959 16.434 136.945 15.522C135.957 14.5847 134.678 14.116 133.107 14.116C131.537 14.116 130.245 14.5847 129.231 15.522C128.218 16.434 127.711 17.6373 127.711 19.132C127.711 20.6267 128.218 21.8427 129.231 22.78C130.245 23.692 131.537 24.148 133.107 24.148ZM158.081 9.252C161.247 9.252 163.679 10.012 165.377 11.532C167.074 13.0267 167.923 15.294 167.923 18.334V30H162.375V27.454C161.26 29.354 159.183 30.304 156.143 30.304C154.572 30.304 153.204 30.038 152.039 29.506C150.899 28.974 150.025 28.2393 149.417 27.302C148.809 26.3647 148.505 25.3007 148.505 24.11C148.505 22.21 149.214 20.7153 150.633 19.626C152.077 18.5367 154.293 17.992 157.283 17.992H161.995C161.995 16.7 161.602 15.712 160.817 15.028C160.031 14.3187 158.853 13.964 157.283 13.964C156.193 13.964 155.117 14.1413 154.053 14.496C153.014 14.8253 152.127 15.2813 151.393 15.864L149.265 11.722C150.379 10.9367 151.709 10.3287 153.255 9.898C154.825 9.46733 156.434 9.252 158.081 9.252ZM157.625 26.314C158.638 26.314 159.537 26.086 160.323 25.63C161.108 25.1487 161.665 24.452 161.995 23.54V21.45H157.929C155.497 21.45 154.281 22.248 154.281 23.844C154.281 24.604 154.572 25.212 155.155 25.668C155.763 26.0987 156.586 26.314 157.625 26.314ZM173.288 1.804H179.216V30H173.288V1.804ZM202.357 30.304C200.66 30.304 199 30.1013 197.379 29.696C195.758 29.2653 194.466 28.7333 193.503 28.1L195.479 23.844C196.391 24.4267 197.493 24.908 198.785 25.288C200.077 25.6427 201.344 25.82 202.585 25.82C205.093 25.82 206.347 25.1993 206.347 23.958C206.347 23.3753 206.005 22.9573 205.321 22.704C204.637 22.4507 203.586 22.2353 202.167 22.058C200.495 21.8047 199.114 21.5133 198.025 21.184C196.936 20.8547 195.986 20.272 195.175 19.436C194.39 18.6 193.997 17.4093 193.997 15.864C193.997 14.572 194.364 13.432 195.099 12.444C195.859 11.4307 196.948 10.6453 198.367 10.088C199.811 9.53067 201.508 9.252 203.459 9.252C204.903 9.252 206.334 9.41667 207.753 9.746C209.197 10.05 210.388 10.4807 211.325 11.038L209.349 15.256C207.55 14.2427 205.587 13.736 203.459 13.736C202.192 13.736 201.242 13.9133 200.609 14.268C199.976 14.6227 199.659 15.0787 199.659 15.636C199.659 16.2693 200.001 16.7127 200.685 16.966C201.369 17.2193 202.458 17.46 203.953 17.688C205.625 17.9667 206.993 18.2707 208.057 18.6C209.121 18.904 210.046 19.474 210.831 20.31C211.616 21.146 212.009 22.3113 212.009 23.806C212.009 25.0727 211.629 26.2 210.869 27.188C210.109 28.176 208.994 28.9487 207.525 29.506C206.081 30.038 204.358 30.304 202.357 30.304ZM225.395 30.304C223.241 30.304 221.303 29.8607 219.581 28.974C217.883 28.062 216.553 26.808 215.591 25.212C214.628 23.616 214.147 21.8047 214.147 19.778C214.147 17.7513 214.628 15.94 215.591 14.344C216.553 12.748 217.883 11.5067 219.581 10.62C221.303 9.708 223.241 9.252 225.395 9.252C227.548 9.252 229.473 9.708 231.171 10.62C232.868 11.5067 234.198 12.748 235.161 14.344C236.123 15.94 236.605 17.7513 236.605 19.778C236.605 21.8047 236.123 23.616 235.161 25.212C234.198 26.808 232.868 28.062 231.171 28.974C229.473 29.8607 227.548 30.304 225.395 30.304ZM225.395 25.44C226.915 25.44 228.156 24.9333 229.119 23.92C230.107 22.8813 230.601 21.5007 230.601 19.778C230.601 18.0553 230.107 16.6873 229.119 15.674C228.156 14.6353 226.915 14.116 225.395 14.116C223.875 14.116 222.621 14.6353 221.633 15.674C220.645 16.6873 220.151 18.0553 220.151 19.778C220.151 21.5007 220.645 22.8813 221.633 23.92C222.621 24.9333 223.875 25.44 225.395 25.44ZM240.567 1.804H246.495V30H240.567V1.804ZM272.593 9.556V30H266.969V27.568C266.183 28.4547 265.246 29.1387 264.157 29.62C263.067 30.076 261.889 30.304 260.623 30.304C257.937 30.304 255.809 29.5313 254.239 27.986C252.668 26.4407 251.883 24.148 251.883 21.108V9.556H257.811V20.234C257.811 23.5273 259.191 25.174 261.953 25.174C263.371 25.174 264.511 24.718 265.373 23.806C266.234 22.8687 266.665 21.488 266.665 19.664V9.556H272.593ZM291.271 29.012C290.688 29.4427 289.966 29.772 289.105 30C288.269 30.2027 287.382 30.304 286.445 30.304C284.013 30.304 282.125 29.6833 280.783 28.442C279.465 27.2007 278.807 25.3767 278.807 22.97V14.572H275.653V10.012H278.807V5.034H284.735V10.012H289.827V14.572H284.735V22.894C284.735 23.7553 284.95 24.4267 285.381 24.908C285.837 25.364 286.47 25.592 287.281 25.592C288.218 25.592 289.016 25.3387 289.675 24.832L291.271 29.012ZM294.598 9.556H300.526V30H294.598V9.556ZM297.562 6.706C296.473 6.706 295.586 6.38933 294.902 5.756C294.218 5.12267 293.876 4.33733 293.876 3.4C293.876 2.46266 294.218 1.67733 294.902 1.044C295.586 0.410665 296.473 0.0939977 297.562 0.0939977C298.652 0.0939977 299.538 0.397998 300.222 1.006C300.906 1.614 301.248 2.374 301.248 3.286C301.248 4.274 300.906 5.09733 300.222 5.756C299.538 6.38933 298.652 6.706 297.562 6.706ZM315.756 30.304C313.603 30.304 311.665 29.8607 309.942 28.974C308.245 28.062 306.915 26.808 305.952 25.212C304.989 23.616 304.508 21.8047 304.508 19.778C304.508 17.7513 304.989 15.94 305.952 14.344C306.915 12.748 308.245 11.5067 309.942 10.62C311.665 9.708 313.603 9.252 315.756 9.252C317.909 9.252 319.835 9.708 321.532 10.62C323.229 11.5067 324.559 12.748 325.522 14.344C326.485 15.94 326.966 17.7513 326.966 19.778C326.966 21.8047 326.485 23.616 325.522 25.212C324.559 26.808 323.229 28.062 321.532 28.974C319.835 29.8607 317.909 30.304 315.756 30.304ZM315.756 25.44C317.276 25.44 318.517 24.9333 319.48 23.92C320.468 22.8813 320.962 21.5007 320.962 19.778C320.962 18.0553 320.468 16.6873 319.48 15.674C318.517 14.6353 317.276 14.116 315.756 14.116C314.236 14.116 312.982 14.6353 311.994 15.674C311.006 16.6873 310.512 18.0553 310.512 19.778C310.512 21.5007 311.006 22.8813 311.994 23.92C312.982 24.9333 314.236 25.44 315.756 25.44ZM343.354 9.252C345.888 9.252 347.927 10.012 349.472 11.532C351.043 13.052 351.828 15.3067 351.828 18.296V30H345.9V19.208C345.9 17.5867 345.546 16.3833 344.836 15.598C344.127 14.7873 343.101 14.382 341.758 14.382C340.264 14.382 339.073 14.8507 338.186 15.788C337.3 16.7 336.856 18.068 336.856 19.892V30H330.928V9.556H336.59V11.95C337.376 11.0887 338.351 10.43 339.516 9.974C340.682 9.49267 341.961 9.252 343.354 9.252ZM364.08 30.304C362.382 30.304 360.723 30.1013 359.102 29.696C357.48 29.2653 356.188 28.7333 355.226 28.1L357.202 23.844C358.114 24.4267 359.216 24.908 360.508 25.288C361.8 25.6427 363.066 25.82 364.308 25.82C366.816 25.82 368.07 25.1993 368.07 23.958C368.07 23.3753 367.728 22.9573 367.044 22.704C366.36 22.4507 365.308 22.2353 363.89 22.058C362.218 21.8047 360.837 21.5133 359.748 21.184C358.658 20.8547 357.708 20.272 356.898 19.436C356.112 18.6 355.72 17.4093 355.72 15.864C355.72 14.572 356.087 13.432 356.822 12.444C357.582 11.4307 358.671 10.6453 360.09 10.088C361.534 9.53067 363.231 9.252 365.182 9.252C366.626 9.252 368.057 9.41667 369.476 9.746C370.92 10.05 372.11 10.4807 373.048 11.038L371.072 15.256C369.273 14.2427 367.31 13.736 365.182 13.736C363.915 13.736 362.965 13.9133 362.332 14.268C361.698 14.6227 361.382 15.0787 361.382 15.636C361.382 16.2693 361.724 16.7127 362.408 16.966C363.092 17.2193 364.181 17.46 365.676 17.688C367.348 17.9667 368.716 18.2707 369.78 18.6C370.844 18.904 371.768 19.474 372.554 20.31C373.339 21.146 373.732 22.3113 373.732 23.806C373.732 25.0727 373.352 26.2 372.592 27.188C371.832 28.176 370.717 28.9487 369.248 29.506C367.804 30.038 366.081 30.304 364.08 30.304ZM400.235 9.252C402.135 9.252 403.858 9.69533 405.403 10.582C406.974 11.4433 408.202 12.672 409.089 14.268C409.976 15.8387 410.419 17.6753 410.419 19.778C410.419 21.8807 409.976 23.73 409.089 25.326C408.202 26.8967 406.974 28.1253 405.403 29.012C403.858 29.8733 402.135 30.304 400.235 30.304C397.626 30.304 395.574 29.4807 394.079 27.834V37.372H388.151V9.556H393.813V11.912C395.282 10.1387 397.423 9.252 400.235 9.252ZM399.209 25.44C400.729 25.44 401.97 24.9333 402.933 23.92C403.921 22.8813 404.415 21.5007 404.415 19.778C404.415 18.0553 403.921 16.6873 402.933 15.674C401.97 14.6353 400.729 14.116 399.209 14.116C397.689 14.116 396.435 14.6353 395.447 15.674C394.484 16.6873 394.003 18.0553 394.003 19.778C394.003 21.5007 394.484 22.8813 395.447 23.92C396.435 24.9333 397.689 25.44 399.209 25.44ZM420.049 12.254C420.759 11.266 421.709 10.5187 422.899 10.012C424.115 9.50533 425.509 9.252 427.079 9.252V14.724C426.421 14.6733 425.977 14.648 425.749 14.648C424.052 14.648 422.722 15.1293 421.759 16.092C420.797 17.0293 420.315 18.448 420.315 20.348V30H414.387V9.556H420.049V12.254ZM440.147 30.304C437.993 30.304 436.055 29.8607 434.333 28.974C432.635 28.062 431.305 26.808 430.343 25.212C429.38 23.616 428.899 21.8047 428.899 19.778C428.899 17.7513 429.38 15.94 430.343 14.344C431.305 12.748 432.635 11.5067 434.333 10.62C436.055 9.708 437.993 9.252 440.147 9.252C442.3 9.252 444.225 9.708 445.923 10.62C447.62 11.5067 448.95 12.748 449.913 14.344C450.875 15.94 451.357 17.7513 451.357 19.778C451.357 21.8047 450.875 23.616 449.913 25.212C448.95 26.808 447.62 28.062 445.923 28.974C444.225 29.8607 442.3 30.304 440.147 30.304ZM440.147 25.44C441.667 25.44 442.908 24.9333 443.871 23.92C444.859 22.8813 445.353 21.5007 445.353 19.778C445.353 18.0553 444.859 16.6873 443.871 15.674C442.908 14.6353 441.667 14.116 440.147 14.116C438.627 14.116 437.373 14.6353 436.385 15.674C435.397 16.6873 434.903 18.0553 434.903 19.778C434.903 21.5007 435.397 22.8813 436.385 23.92C437.373 24.9333 438.627 25.44 440.147 25.44ZM475.054 9.556L466.428 30H460.31L451.722 9.556H457.84L463.502 23.464L469.354 9.556H475.054ZM477.473 9.556H483.401V30H477.473V9.556ZM480.437 6.706C479.348 6.706 478.461 6.38933 477.777 5.756C477.093 5.12267 476.751 4.33733 476.751 3.4C476.751 2.46266 477.093 1.67733 477.777 1.044C478.461 0.410665 479.348 0.0939977 480.437 0.0939977C481.527 0.0939977 482.413 0.397998 483.097 1.006C483.781 1.614 484.123 2.374 484.123 3.286C484.123 4.274 483.781 5.09733 483.097 5.756C482.413 6.38933 481.527 6.706 480.437 6.706ZM509.727 1.804V30H504.065V27.644C502.596 29.4173 500.468 30.304 497.681 30.304C495.756 30.304 494.008 29.8733 492.437 29.012C490.892 28.1507 489.676 26.922 488.789 25.326C487.902 23.73 487.459 21.8807 487.459 19.778C487.459 17.6753 487.902 15.826 488.789 14.23C489.676 12.634 490.892 11.4053 492.437 10.544C494.008 9.68267 495.756 9.252 497.681 9.252C500.29 9.252 502.33 10.0753 503.799 11.722V1.804H509.727ZM498.707 25.44C500.202 25.44 501.443 24.9333 502.431 23.92C503.419 22.8813 503.913 21.5007 503.913 19.778C503.913 18.0553 503.419 16.6873 502.431 15.674C501.443 14.6353 500.202 14.116 498.707 14.116C497.187 14.116 495.933 14.6353 494.945 15.674C493.957 16.6873 493.463 18.0553 493.463 19.778C493.463 21.5007 493.957 22.8813 494.945 23.92C495.933 24.9333 497.187 25.44 498.707 25.44ZM535.24 19.854C535.24 19.93 535.202 20.462 535.126 21.45H519.66C519.938 22.7167 520.597 23.7173 521.636 24.452C522.674 25.1867 523.966 25.554 525.512 25.554C526.576 25.554 527.513 25.402 528.324 25.098C529.16 24.7687 529.932 24.262 530.642 23.578L533.796 26.998C531.87 29.202 529.058 30.304 525.36 30.304C523.054 30.304 521.015 29.8607 519.242 28.974C517.468 28.062 516.1 26.808 515.138 25.212C514.175 23.616 513.694 21.8047 513.694 19.778C513.694 17.7767 514.162 15.978 515.1 14.382C516.062 12.7607 517.367 11.5067 519.014 10.62C520.686 9.708 522.548 9.252 524.6 9.252C526.601 9.252 528.412 9.68267 530.034 10.544C531.655 11.4053 532.922 12.6467 533.834 14.268C534.771 15.864 535.24 17.726 535.24 19.854ZM524.638 13.736C523.295 13.736 522.168 14.116 521.256 14.876C520.344 15.636 519.786 16.6747 519.584 17.992H529.654C529.451 16.7 528.894 15.674 527.982 14.914C527.07 14.1287 525.955 13.736 524.638 13.736ZM544.848 12.254C545.558 11.266 546.508 10.5187 547.698 10.012C548.914 9.50533 550.308 9.252 551.878 9.252V14.724C551.22 14.6733 550.776 14.648 550.548 14.648C548.851 14.648 547.521 15.1293 546.558 16.092C545.596 17.0293 545.114 18.448 545.114 20.348V30H539.186V9.556H544.848V12.254Z" fill="white"/>
</svg>
